<svg xmlns:x="http://ns.adobe.com/Extensibility/1.0/" xmlns:i="http://ns.adobe.com/AdobeIllustrator/10.0/" xmlns:graph="http://ns.adobe.com/Graphs/1.0/" xmlns="http://www.w3.org/2000/svg" xmlns:xlink="http://www.w3.org/1999/xlink" xmlns:a="http://ns.adobe.com/AdobeSVGViewerExtensions/3.0/" version="1.1" x="0px" y="0px" viewBox="0 0 100 100" enable-background="new 0 0 100 100" xml:space="preserve">
    <path d="M97.2,33.4l-8.9-16.6L72.1,5.1L58.3,0.1l-20,0.3l-0.2,0.1l0,0l0,0L20.2,9L7,22.5L0.1,39.7L0,39.8L0.2,61l5.4,13.1l4.2,6.3  l10.8,11.3l18.8,8.4L61,99.8l20.2-9.7l12.4-15.5l6.3-17.9L97.2,33.4z M56.5,59.2l-26.2-4.3l17.2-21.1L56.5,59.2z M48.9,33.3  l24.7,5.3l-15.7,20L48.9,33.3z M58.7,61.2l21.7,6L63.1,82.4L58.7,61.2z M61.7,83l-23.8-2.5l19.3-18.8L61.7,83z M59,59.7l15.6-19.9  l6.3,26.1L59,59.7z M49.1,31.8l13.5-17.4L73.5,37L49.1,31.8z M46.1,33l-17,20.9l-7.8-20.9L46.1,33z M21.8,31.6l13.7-17.3l10.8,17.2  L21.8,31.6z M56.1,60.7L36.6,79.6l-6.6-23.2L56.1,60.7z M61.1,84.4l-11,11.4L38,82L61.1,84.4z M80.4,69.3L74,89.5L64,83.7L80.4,69.3  z M76,39.6l15.9,8.8l-9.7,16.5L76,39.6z M64.4,14.5l18.5,7.4l-7.9,14.6L64.4,14.5z M47.8,31.2L37,14h24.1L47.8,31.2z M34,12.8  l-20.2,8.1l13-12.9L34,12.8z M28.5,7.3l18-4.4L35.6,12L28.5,7.3z M33.2,14.7L20.2,31.2l-8.2-8L33.2,14.7z M27.6,54.2l-20.8-7  L20,33.7L27.6,54.2z M27.5,55.8L14.1,69.2L6.7,48.8L27.5,55.8z M28.5,56.9L35,79.7l-19.9-9.3L28.5,56.9z M48,95.7l-19-4.3l7.3-9.2  L48,95.7z M62.8,84.8l9.7,5.5l-20,5.2L62.8,84.8z M82.3,68.3l7.4,7L76.1,88.1L82.3,68.3z M82.9,66.8L92,51.3l-1.8,22.3L82.9,66.8z   M75.9,37.8l7.9-14.4l7.9,23.1L75.9,37.8z M64.2,12.7l7.5-5.9l10,12.9L64.2,12.7z M37.6,13l11.8-9.9L60.7,13H37.6z M43.7,2L33.1,4.6  l5.5-2.7L43.7,2z M23.1,9.4l-5.3,5.3l3.3-4.4L23.1,9.4z M19.2,32.3L6.8,45.2l4.3-20.7L19.2,32.3z M12.2,68.5L1.9,60.6l3.6-10.7  L12.2,68.5z M3.1,63.4l9.8,7.4L10.4,78L3.1,63.4z M35,81.3l-7.4,9.3L15.9,72.4L35,81.3z M27.6,91.9L27.6,91.9L27.6,91.9L27.6,91.9z   M46.5,97l-6.7,1.5L32,93.7L46.5,97z M69.8,92.6l-9.1,5.7l-7.2-1.4L69.8,92.6z M85.8,81l-5.5,7.8l-3.4,0.6L85.8,81z M93.6,50.2  l4.7,6.5L91.9,71L93.6,50.2z M93.8,47.9l2.4-10L98,53.8L93.8,47.9z M92.8,45.4l-7.2-21.1l9.9,9.7L92.8,45.4z M75.6,9.6l10.9,7.9  L84,20.3L75.6,9.6z M62.7,12L52.1,2.7L70,6.2L62.7,12z M10.1,22.3l-0.8,0l3.5-3.6L10.1,22.3z M5.1,45.6L1.6,40l7.3-12.6L5.1,45.6z   M4.7,47.7l-3,8.8L1.5,42.7L4.7,47.7z M14,72.3l10.9,16.8l-13.5-9.4L14,72.3z M27.3,92.6l1.8,1.1l-2.8-1.2L27.3,92.6z M50.1,97.7  l3.2,0.6L47,98.4L50.1,97.7z M74.7,91.3l0.7-0.1l-2.2,1.1L74.7,91.3z M92.4,73.7L92.4,73.7l0.2-0.5L92.4,73.7z M93.4,29.7L85,21.5  l2.5-2.8L93.4,29.7z M62.4,3.2l-7.1-1.4l2.8-0.2L62.4,3.2z M8.1,23.7l1.1,0.1l-3.8,6.6L8.1,23.7z M16.4,85l8.2,5.7l-3.1-0.4L16.4,85  z" stroke="#333333" fill="#333333" />
    <!-- Created by Paul Krizsan from the Noun Project. CC-licensed -->
</svg>
